<?xml version="1.0" encoding="utf-8"?>
<!-- Generator: Adobe Illustrator 19.2.1, SVG Export Plug-In . SVG Version: 6.00 Build 0)  -->
<svg version="1.1" id="layer" xmlns="http://www.w3.org/2000/svg" xmlns:xlink="http://www.w3.org/1999/xlink" x="0px" y="0px"
	 viewBox="0 0 652 652" style="enable-background:new 0 0 652 652;" xml:space="preserve">
<style type="text/css">
	.st0{fill:#34343B;}
	.st1{fill:#D92E2E;}
</style>
<g id="CSDN">
	<path class="st0" d="M319.7,292.5c1.1-8.1,2-16,3.3-23.9c0.5-3.2-0.1-4.7-3.4-5.1c-11.5-1.2-23-3-34.5-3.7
		c-20.7-1.2-41.3-0.7-61.2,6.2c-10.4,3.6-19.9,8.7-27,17.5c-9.8,12.2-8.3,27.5,4,37.1c3.8,2.9,8,5.4,12.3,7.6
		c12.6,6.3,26.4,9,40,12.4c4.4,1.1,8.9,2.4,13.1,4.2c4.4,1.9,5.8,5.5,3.7,9.8c-1.1,2.3-2.9,4.7-5,5.9c-3.9,2.1-8.1,3.8-12.4,4.6
		c-12.5,2.4-25,1.4-37.5-0.4c-10-1.5-19.9-3.7-30-5.6c-0.9,7.3-1.7,15-3,22.5c-0.6,3.8,0.4,5.7,4.1,6.2c0.7,0.1,1.4,0.4,2.1,0.6
		c27.9,7.5,56,7.9,84.2,1.8c12.5-2.7,24.2-7.4,33.6-16.6c6.9-6.7,10.7-14.8,10.1-24.6c-0.6-10.8-7.2-17.5-15.9-22.7
		c-10.6-6.4-22.4-9.5-34.2-12.6c-8.5-2.3-17.1-4.3-25.3-7.3c-5.8-2.1-6.5-7.8-2.1-12.2c1.6-1.6,3.6-3.2,5.7-3.7
		c6.1-1.5,12.4-3.4,18.7-3.6C282.1,286.4,300.7,288.6,319.7,292.5z"/>
	<path class="st0" d="M620.9,388.8c0.2-1.4,0.5-2.7,0.7-4c1.5-14.6,3.1-29.3,4.5-43.9c1-10.9,2.5-21.9,2.5-32.8
		c0-19-8.1-33.5-26.2-41.3c-10.6-4.6-21.8-6.2-33.1-6.7c-22.7-1-45,1.9-67.3,5.9c-2,0.4-2.5,1.2-2.6,3c-0.9,10.7-1.9,21.4-3,32.1
		c-2.3,22.1-4.6,44.1-6.9,66.2c-0.7,7.1-1.5,14.3-2.2,21.6c12.8,0,25.1,0,37.5,0c0.2-0.5,0.4-0.8,0.4-1.2
		c3.2-31.3,6.5-62.6,9.7-93.9c0.2-1.9,0.2-3.5,2.7-3.9c11-1.8,22.1-2.7,33.1-0.8c14.8,2.5,21.3,11.1,19.8,26
		c-1.9,18.1-4,36.2-5.9,54.3c-0.7,6.4-1.3,12.9-2,19.5C595.5,388.8,608.1,388.8,620.9,388.8z"/>
	<path class="st1" d="M164.6,361.7c-8.5,1-16.4,2.3-24.4,2.9c-15,1.2-29.9,1.4-44.3-4c-11.5-4.3-19.1-12.1-20.8-24.6
		c-2.6-19,7.1-35.5,25-42.8c13-5.3,26.7-6.5,40.5-5.7c11.6,0.7,23.2,2.3,35,3.5c1.1-9.1,2.3-18.9,3.4-28.4c-0.5-0.4-0.7-0.6-0.9-0.7
		c-0.9-0.3-1.8-0.6-2.8-0.7c-29-5.1-57.9-5.5-86.3,3.4c-18.9,5.9-35.8,15.3-47.7,31.7c-12.4,17.1-16.6,36.1-8.9,56.4
		c5.6,14.7,17,24,30.8,30.5c14.2,6.7,29.3,9.6,44.8,10.3c17,0.8,34,0.6,50.7-3.1c1.2-0.3,2.9-1.6,3-2.6
		C162.9,379.2,163.7,370.5,164.6,361.7z"/>
	<path class="st0" d="M465.7,286.2c-9.4-11.5-22.4-16.8-36.3-20.3c-21.6-5.4-43.5-4.9-65.5-4.1c-6,0.2-12,0.8-18.2,1.3
		c-4.3,42.1-8.6,83.8-13,125.9c1.2,0.2,2,0.4,2.8,0.5c20.4,2.5,40.9,3.3,61.4,1.8c11.1-0.8,22.4-2.5,33-5.8
		c24.4-7.7,41.5-23.3,46.4-49.5C479.8,318.1,477.8,301,465.7,286.2z M417.6,358.6c-14.7,7-30.1,7.8-46.5,5.8
		c2.5-25.5,5-50.6,7.5-75.9c1.7-0.2,3.4-0.5,5-0.5c13.4-0.4,26.8-0.5,39.4,5.2c8.7,4,14.2,10.6,16.3,19.9
		C443.9,332.6,435.6,350,417.6,358.6z"/>
</g>
</svg>
